<svg xmlns="http://www.w3.org/2000/svg" viewBox="0 0 512 512" role="img" aria-labelledby="title desc">
  <title id="title">Quranki app icon</title>
  <desc id="desc">A warm dark rounded-square icon with a cream crescent and bookmark.</desc>
  <rect width="512" height="512" rx="112" fill="#17130f"/>
  <path d="M154 108h204c22 0 40 18 40 40v256c0 12-13 20-23 14l-40-25-40 25c-10 6-23-2-23-14V148c0-22 18-40 40-40H154z" fill="#ede9e2" opacity="0.95"/>
  <path d="M154 108h148c-18 6-30 22-30 40v256c0 12 13 20 23 14l40-25 40 25c2 1 4 2 6 2H154c-22 0-40-18-40-40V148c0-22 18-40 40-40z" fill="#f5f1eb"/>
  <path d="M230 183c-37 16-58 57-47 98 13 49 63 78 112 65 23-6 41-20 53-38-10 45-45 83-94 96-67 18-136-22-154-89s22-136 89-154c49-13 99 5 129 42-25-21-60-30-88-20z" fill="#17130f"/>
  <path d="M336 152v192l-32-20-32 20V152c0-18 14-32 32-32s32 14 32 32z" fill="#8a7f72"/>
</svg>
